<svg width="24" height="24" viewBox="0 0 24 24" fill="none" xmlns="http://www.w3.org/2000/svg">
<path d="M11.2572 2.79711L3.25722 5.99711C2.4979 6.30084 2 7.03626 2 7.85406V17.5329C2 18.3792 2.53262 19.1338 3.32998 19.4173L11.33 22.2618C11.7634 22.4159 12.2366 22.4159 12.67 22.2618L20.67 19.4173C21.4674 19.1338 22 18.3792 22 17.5329V7.85407C22 7.03626 21.5021 6.30084 20.7428 5.99711L12.7428 2.79711C12.266 2.60638 11.734 2.60638 11.2572 2.79711Z" stroke="#133B77" stroke-width="1.43"/>
<path d="M2 6.49878L12 10.4988M12 10.4988L22 6.49878M12 10.4988V22.4988" stroke="#133B77" stroke-width="1.43"/>
<path d="M16.5881 4.92575C16.9459 4.75876 17.1006 4.33331 16.9336 3.97547C16.7666 3.61763 16.3412 3.46292 15.9833 3.62991L16.5881 4.92575ZM6.7619 8.72228L6.45954 8.07436L6.0469 8.26692V8.72228H6.7619ZM6.0469 12.7223C6.0469 13.1172 6.36702 13.4373 6.7619 13.4373C7.15679 13.4373 7.4769 13.1172 7.4769 12.7223H6.0469ZM15.9833 3.62991L6.45954 8.07436L7.06427 9.3702L16.5881 4.92575L15.9833 3.62991ZM6.0469 8.72228V12.7223H7.4769V8.72228H6.0469Z" fill="#133B77"/>
</svg>
