<svg width="9" height="16" viewBox="0 0 9 16" fill="none" xmlns="http://www.w3.org/2000/svg">
<path d="M5.048 12.456C5.61333 12.3813 6.04 12.192 6.328 11.888C6.62133 11.5787 6.768 11.176 6.768 10.68C6.768 10.4773 6.73067 10.3013 6.656 10.152C6.58667 9.99733 6.48533 9.86133 6.352 9.744C6.224 9.62667 6.072 9.52533 5.896 9.44C5.72 9.35467 5.528 9.27467 5.32 9.2L5.048 12.456ZM4.536 4C4.23733 4.03733 3.984 4.10133 3.776 4.192C3.568 4.27733 3.39733 4.384 3.264 4.512C3.13067 4.64 3.032 4.784 2.968 4.944C2.90933 5.104 2.88 5.272 2.88 5.448C2.88 5.65067 2.91467 5.82933 2.984 5.984C3.05867 6.13333 3.15733 6.26933 3.28 6.392C3.408 6.50933 3.55733 6.616 3.728 6.712C3.89867 6.80267 4.08533 6.888 4.288 6.968L4.536 4ZM5.472 7.352C5.856 7.46933 6.23733 7.6 6.616 7.744C6.99467 7.88267 7.33333 8.064 7.632 8.288C7.936 8.512 8.18133 8.792 8.368 9.128C8.55467 9.45867 8.648 9.87467 8.648 10.376C8.648 10.872 8.56533 11.3387 8.4 11.776C8.23467 12.208 7.992 12.592 7.672 12.928C7.352 13.2587 6.96 13.5307 6.496 13.744C6.032 13.952 5.50133 14.0747 4.904 14.112L4.808 15.288C4.80267 15.4107 4.74933 15.5227 4.648 15.624C4.552 15.7307 4.42933 15.784 4.28 15.784H3.552L3.696 14.072C3.072 13.9867 2.48533 13.816 1.936 13.56C1.38667 13.304 0.92 12.9867 0.536 12.608L1.144 11.704C1.19733 11.624 1.26667 11.56 1.352 11.512C1.44267 11.4587 1.53867 11.432 1.64 11.432C1.75733 11.432 1.88267 11.4747 2.016 11.56C2.14933 11.64 2.30133 11.736 2.472 11.848C2.64267 11.9547 2.83733 12.064 3.056 12.176C3.27467 12.288 3.53333 12.3707 3.832 12.424L4.128 8.848C3.74933 8.74133 3.37333 8.616 3 8.472C2.632 8.328 2.29867 8.13867 2 7.904C1.70667 7.664 1.46933 7.36267 1.288 7C1.10667 6.63733 1.016 6.184 1.016 5.64C1.016 5.23467 1.096 4.84 1.256 4.456C1.416 4.06667 1.65067 3.72 1.96 3.416C2.27467 3.112 2.65867 2.86133 3.112 2.664C3.56533 2.46667 4.08533 2.35467 4.672 2.328L4.76 1.32C4.77067 1.192 4.824 1.07733 4.92 0.976C5.016 0.874666 5.14133 0.823999 5.296 0.823999H6.024L5.896 2.392C6.46133 2.48267 6.94933 2.64533 7.36 2.88C7.77067 3.10933 8.12533 3.368 8.424 3.656L7.944 4.384C7.87467 4.49067 7.80267 4.57067 7.728 4.624C7.65333 4.67733 7.56267 4.704 7.456 4.704C7.376 4.704 7.28 4.68 7.168 4.632C7.056 4.57867 6.93067 4.51733 6.792 4.448C6.65333 4.37333 6.496 4.29867 6.32 4.224C6.14933 4.14933 5.96 4.088 5.752 4.04L5.472 7.352Z" fill="#133B77"/>
</svg>
