<svg width="22" height="18" viewBox="0 0 22 18" fill="none" xmlns="http://www.w3.org/2000/svg">
<path d="M8.24279 10.1119L5.53387 7.39829L5.53386 7.39828C4.7023 6.56534 3.35457 6.56545 2.52296 7.39819L2.52281 7.39835L1.87362 8.04878C1.8735 8.0489 1.87339 8.04901 1.87327 8.04913C1.04187 8.88072 1.04268 10.2297 1.87308 11.0615C1.87309 11.0615 1.8731 11.0616 1.87312 11.0616L7.0607 16.2586C7.06093 16.2589 7.06115 16.2591 7.06137 16.2593C7.37533 16.5753 7.80168 16.75 8.24278 16.75C8.68384 16.75 9.11013 16.5753 9.42408 16.2594C9.42434 16.2591 9.4246 16.2589 9.42486 16.2586L20.1265 5.53838L20.1269 5.53795L8.24279 10.1119ZM8.24279 10.1119L16.4661 1.87468L16.4662 1.87459C17.2976 1.04208 18.6465 1.04136 19.4775 1.87509L20.1269 2.52568L8.24279 10.1119Z" stroke="#0FC494" stroke-width="1.5"/>
</svg>
