<svg width="24" height="24" viewBox="0 0 24 24" fill="none" xmlns="http://www.w3.org/2000/svg">
<path d="M18.3627 20.5203H5.3418V21.9999H18.3627V20.5203Z" fill="#133B77"/>
<path d="M14.1951 8.60913H9.63291C9.22427 8.60913 8.89307 8.94034 8.89307 9.34897C8.89307 9.75761 9.22427 10.0888 9.63291 10.0888H14.1951C14.6038 10.0888 14.935 9.75761 14.935 9.34897C14.935 8.94034 14.6038 8.60913 14.1951 8.60913Z" fill="#133B77"/>
<path d="M17.6476 12.0618H9.63291C9.22427 12.0618 8.89307 12.393 8.89307 12.8016C8.89307 13.2102 9.22427 13.5415 9.63291 13.5415H17.6477C18.0563 13.5415 18.3875 13.2102 18.3875 12.8016C18.3875 12.393 18.0563 12.0618 17.6476 12.0618Z" fill="#133B77"/>
<path d="M21.6257 2.0901C21.3601 1.97074 21.0496 2.01786 20.8316 2.21045L18.7599 4.04323L16.6856 2.18848C16.4047 1.93717 15.9801 1.93717 15.6992 2.18848L13.6277 4.04099L11.556 2.18848C11.2751 1.93717 10.8507 1.93717 10.5698 2.18848L8.49554 4.04323L6.42379 2.21045C6.20605 2.0181 5.89532 1.97097 5.62971 2.0901C5.36437 2.2097 5.19372 2.47358 5.19372 2.76458V15.9335H2.67832C2.26968 15.9334 1.93848 16.2646 1.93848 16.6733V18.4735C1.93848 20.418 3.52047 22 5.46495 22V20.5203C4.33624 20.5203 3.41812 19.602 3.41812 18.4735V17.4131H15.0087V18.4735C15.0087 20.418 16.5907 22 18.5352 22C20.4797 22 22.0616 20.418 22.0616 18.4735V2.76454C22.0617 2.47354 21.891 2.2097 21.6257 2.0901ZM20.582 18.4735C20.582 19.602 19.6637 20.5203 18.5352 20.5203C17.4067 20.5203 16.4884 19.602 16.4884 18.4735V16.6733C16.4884 16.2646 16.1572 15.9334 15.7485 15.9334H6.67337V4.40671L8.00826 5.58773C8.28939 5.83632 8.71206 5.83506 8.99147 5.58502L11.063 3.7325L13.1345 5.58478C13.4154 5.83609 13.84 5.83609 14.1209 5.58478L16.1927 3.73227L18.2642 5.58478C18.5438 5.83483 18.9665 5.83581 19.2474 5.58749L20.582 4.40675V18.4735Z" fill="#133B77"/>
</svg>
