<svg width="24" height="24" viewBox="0 0 24 24" fill="none" xmlns="http://www.w3.org/2000/svg">
<g id="Iconly/Light/Password">
<g id="Password">
<path id="Stroke 1" fill-rule="evenodd" clip-rule="evenodd" d="M16.3341 2.75011H7.66509C4.64409 2.75011 2.75009 4.88911 2.75009 7.91611V16.0841C2.75009 19.1111 4.63509 21.2501 7.66509 21.2501H16.3331C19.3641 21.2501 21.2501 19.1111 21.2501 16.0841V7.91611C21.2501 4.88911 19.3641 2.75011 16.3341 2.75011Z" stroke="#0066FF" stroke-width="1.5" stroke-linecap="round" stroke-linejoin="round"/>
<path id="Stroke 3" fill-rule="evenodd" clip-rule="evenodd" d="M10.6891 12.0001C10.6891 13.0231 9.86008 13.8521 8.83708 13.8521C7.81408 13.8521 6.98508 13.0231 6.98508 12.0001C6.98508 10.9771 7.81408 10.1481 8.83708 10.1481H8.84008C9.86108 10.1491 10.6891 10.9781 10.6891 12.0001Z" stroke="#0066FF" stroke-width="1.5" stroke-linecap="round" stroke-linejoin="round"/>
<path id="Stroke 5" d="M10.692 12.0001H17.01V13.8521" stroke="#0066FF" stroke-width="1.5" stroke-linecap="round" stroke-linejoin="round"/>
<path id="Stroke 7" d="M14.1818 13.8522V12.0002" stroke="#0066FF" stroke-width="1.5" stroke-linecap="round" stroke-linejoin="round"/>
</g>
</g>
</svg>
