<svg width="355" height="365" viewBox="0 0 355 365" fill="none" xmlns="http://www.w3.org/2000/svg">
<circle cx="301.5" cy="63.5" r="301.5" fill="#0066FF"/>
<path d="M303.649 78.3075V77.6726C303.649 76.9451 303.781 76.3399 304.046 75.8571C304.31 75.3743 304.773 74.875 305.435 74.3591C306.222 73.7374 306.728 73.2546 306.952 72.9107C307.184 72.5668 307.3 72.1567 307.3 71.6806C307.3 71.125 307.114 70.6984 306.744 70.4008C306.374 70.1032 305.841 69.9544 305.147 69.9544C304.519 69.9544 303.937 70.0437 303.401 70.2222C302.865 70.4008 302.343 70.6157 301.833 70.8671L301 69.121C302.343 68.3737 303.781 68 305.315 68C306.612 68 307.64 68.3175 308.401 68.9524C309.161 69.5873 309.542 70.4636 309.542 71.5813C309.542 72.0774 309.469 72.5205 309.323 72.9107C309.178 73.2943 308.956 73.6614 308.659 74.0119C308.368 74.3624 307.862 74.8188 307.141 75.381C306.526 75.8638 306.112 76.2639 305.901 76.5813C305.696 76.8988 305.593 77.3254 305.593 77.8611V78.3075H303.649ZM303.242 81.4722C303.242 80.4735 303.728 79.9742 304.7 79.9742C305.177 79.9742 305.54 80.1065 305.792 80.371C306.043 80.629 306.169 80.996 306.169 81.4722C306.169 81.9418 306.04 82.3155 305.782 82.5933C305.53 82.8644 305.17 83 304.7 83C304.231 83 303.87 82.8677 303.619 82.6032C303.368 82.332 303.242 81.955 303.242 81.4722Z" fill="#0066FF"/>
</svg>
