<svg width="18" height="20" viewBox="0 0 18 20" fill="none" xmlns="http://www.w3.org/2000/svg">
<path d="M10.6976 15.6773C14.7467 15.6187 17.9921 12.2768 17.9323 8.22779C17.8724 4.17872 14.5296 0.932295 10.4804 0.990902C6.43138 1.04951 3.18594 4.39133 3.24583 8.44037C3.27118 10.1543 3.88487 11.7243 4.89117 12.9607L3.1785 14.7243L1.93871 13.5202C1.59634 13.1877 1.04935 13.1957 0.716972 13.5379C0.384596 13.8802 0.392661 14.4272 0.735031 14.7597L1.97483 15.9637L0.279461 17.7094C-0.0528839 18.0517 -0.0448194 18.5987 0.297582 18.9312C0.639952 19.2637 1.18694 19.2558 1.51932 18.9135L3.21468 17.1678L4.45451 18.3719C4.79688 18.7044 5.34387 18.6964 5.67624 18.3542C6.00862 18.0119 6.00056 17.4649 5.65819 17.1324L4.41836 15.9284L6.131 14.1649C7.39647 15.1346 8.98373 15.7021 10.6976 15.6773ZM4.97367 8.41536C4.92788 5.31902 7.40967 2.76352 10.506 2.7187C13.6023 2.67392 16.1586 5.15636 16.2045 8.2528C16.2503 11.3491 13.7685 13.9046 10.6721 13.9495C7.57579 13.9942 5.01949 11.5117 4.97367 8.41536Z" fill="#EEF1F5"/>
</svg>
