<svg width="20" height="22" viewBox="0 0 20 22" fill="none" xmlns="http://www.w3.org/2000/svg">
<path d="M19.1711 0.998047H12.5086C12.049 0.998047 11.6777 1.37159 11.6777 1.82909C11.6777 2.28871 12.049 2.66135 12.5086 2.66135H17.1628L11.4289 8.39469C11.3386 8.48546 11.2802 8.58804 11.2405 8.69954C10.0145 7.71297 8.52015 7.14865 6.92402 7.14865C5.07282 7.14865 3.33357 7.86849 2.0249 9.1758C-0.674743 11.877 -0.674743 16.2703 2.0249 18.9733C3.33266 20.2814 5.07282 21.0018 6.92266 21.0018C8.77386 21.0018 10.5131 20.2795 11.8213 18.9733C14.3399 16.4508 14.4772 12.4749 12.2967 9.75722C12.4091 9.71758 12.5132 9.65812 12.6044 9.56825L18.3364 3.83446V8.49C18.3364 8.94871 18.7086 9.32089 19.1691 9.32089C19.6269 9.32089 20 8.94871 20 8.49V1.82803C20.002 1.37068 19.628 0.998047 19.1711 0.998047ZM10.6462 17.7996C8.656 19.7884 5.18886 19.7884 3.20134 17.7996C1.14877 15.7471 1.14877 12.4066 3.20134 10.3532C4.19487 9.35871 5.51731 8.8118 6.92493 8.8118C8.32937 8.8118 9.65271 9.35766 10.6462 10.3532C12.6985 12.4066 12.6985 15.7471 10.6462 17.7996Z" fill="#0066FF"/>
</svg>
